<?xml version="1.0" encoding="utf-8"?>
<!-- Generator: Adobe Illustrator 25.2.3, SVG Export Plug-In . SVG Version: 6.00 Build 0)  -->
<svg version="1.1" id="Capa_1" xmlns="http://www.w3.org/2000/svg" xmlns:xlink="http://www.w3.org/1999/xlink" x="0px" y="0px"
	 viewBox="0 0 401.28 398.89" style="enable-background:new 0 0 401.28 398.89;" xml:space="preserve">
<style type="text/css">
	.st0{fill:none;stroke:#FFFFFF;stroke-width:0.5669;stroke-miterlimit:22.9256;}
	.st1{fill-rule:evenodd;clip-rule:evenodd;fill:url(#SVGID_1_);}
	.st2{fill:#FFFFFF;filter:url(#Adobe_OpacityMaskFilter);}
	.st3{mask:url(#mask0_61_3_1_);}
	.st4{fill:url(#SVGID_2_);}
	.st5{fill:#FFFFFF;filter:url(#Adobe_OpacityMaskFilter_1_);}
	.st6{mask:url(#mask1_61_3_1_);}
	.st7{fill:url(#SVGID_3_);}
	.st8{fill:#FFFFFF;filter:url(#Adobe_OpacityMaskFilter_2_);}
	.st9{mask:url(#mask2_61_3_1_);}
	.st10{fill:url(#SVGID_4_);}
	.st11{fill-rule:evenodd;clip-rule:evenodd;fill:#FFFFFF;}
	.st12{fill-rule:evenodd;clip-rule:evenodd;fill:url(#SVGID_5_);}
	.st13{fill-rule:evenodd;clip-rule:evenodd;fill:#C9E6EA;}
	.st14{fill:url(#SVGID_6_);}
</style>
<g>
	<g>
		<path class="st0" d="M106.78,290.12c0,0-62.16,23.71-87.28-49.62"/>
		<path class="st0" d="M144.3,151.56c-40.91,10.88-85.47,37.73-86.7,83.53c0,0,33.28-29.41,53.53-29.63"/>
		
			<linearGradient id="SVGID_1_" gradientUnits="userSpaceOnUse" x1="330.7257" y1="-19.7679" x2="174.2257" y2="134.2321" gradientTransform="matrix(1 0 0 -1 2.131348e-04 264.1101)">
			<stop  offset="0" style="stop-color:#FFFFFF"/>
			<stop  offset="1" style="stop-color:#2C6DB5"/>
		</linearGradient>
		<path class="st1" d="M111.13,205.46c6.47-16.46,16.77-35.28,33.18-53.9c25.21-28.6,64.85-56.73,127.13-75.09
			c31.3,11.37,64.98,28.39,100.75,52.09c1.3,0.86,26.8,14.72,20.79,29.88c-12.01,30.33-78.59,64.65-158.5,60.17
			c-38.75-2.17-129.26-12.23-134.22,37.95C100.26,256.57,99.63,234.74,111.13,205.46z"/>
		<defs>
			<filter id="Adobe_OpacityMaskFilter" filterUnits="userSpaceOnUse" x="14.51" y="39.57" width="256.92" height="274.27">
				<feColorMatrix  type="matrix" values="1 0 0 0 0  0 1 0 0 0  0 0 1 0 0  0 0 0 1 0"/>
			</filter>
		</defs>
		<mask maskUnits="userSpaceOnUse" x="14.51" y="39.57" width="256.92" height="274.27" id="mask0_61_3_1_">
			<path class="st2" d="M144.3,151.56c-40.91,10.88-85.47,37.73-86.7,83.53c0,0,33.28-29.41,53.53-29.63
				c-11.5,29.28-10.87,51.11-10.87,51.11c-0.9,9.08,1,20.13,6.52,33.55c0,0-62.16,23.72-87.28-49.62
				c-3.49-13.67-4.98-27.49-4.57-41.07C17.5,115.13,93.39,39.56,218.76,62.06c16.7,3,34.27,7.73,52.67,14.42
				C209.15,94.83,169.52,122.96,144.3,151.56z"/>
		</mask>
		<g class="st3">
			
				<linearGradient id="SVGID_2_" gradientUnits="userSpaceOnUse" x1="182.9125" y1="41.5721" x2="64.4123" y2="177.5721" gradientTransform="matrix(1 0 0 -1 2.131348e-04 264.1101)">
				<stop  offset="0" style="stop-color:#FFFFFF"/>
				<stop  offset="0.3995" style="stop-color:#ACCBEC"/>
				<stop  offset="0.6146" style="stop-color:#7AABDD"/>
				<stop  offset="1" style="stop-color:#5591CD"/>
			</linearGradient>
			<path class="st4" d="M14.51,39.57h256.92v274.27H14.51V39.57z"/>
		</g>
		<defs>
			<filter id="Adobe_OpacityMaskFilter_1_" filterUnits="userSpaceOnUse" x="19.5" y="240.51" width="202.03" height="145.63">
				<feColorMatrix  type="matrix" values="1 0 0 0 0  0 1 0 0 0  0 0 1 0 0  0 0 0 1 0"/>
			</filter>
		</defs>
		<mask maskUnits="userSpaceOnUse" x="19.5" y="240.51" width="202.03" height="145.63" id="mask1_61_3_1_">
			<path class="st5" d="M19.5,240.51c13.68,39.93,38.34,51.09,57.97,52.96c42.32,4.05,71.18-34.19,142.89-24.43
				c-19.51,16-39.03,32-58.54,48.01c12.88,39.81,59.72,69.08,59.72,69.08C99.97,369.08,36.37,306.51,19.5,240.51z"/>
		</mask>
		<g class="st6">
			
				<linearGradient id="SVGID_3_" gradientUnits="userSpaceOnUse" x1="212.8584" y1="-139.0762" x2="94.8604" y2="-24.2512" gradientTransform="matrix(1 0 0 -1 2.131348e-04 264.1101)">
				<stop  offset="0" style="stop-color:#FFFFFF"/>
				<stop  offset="1" style="stop-color:#205CA8"/>
			</linearGradient>
			<path class="st7" d="M19.5,240.51h202.03v145.63H19.5V240.51z"/>
		</g>
		<defs>
			<filter id="Adobe_OpacityMaskFilter_2_" filterUnits="userSpaceOnUse" x="-1.98" y="10.86" width="395.88" height="208.15">
				<feColorMatrix  type="matrix" values="1 0 0 0 0  0 1 0 0 0  0 0 1 0 0  0 0 0 1 0"/>
			</filter>
		</defs>
		<mask maskUnits="userSpaceOnUse" x="-1.98" y="10.86" width="395.88" height="208.15" id="mask2_61_3_1_">
			<path class="st8" d="M218.76,62.06C93.39,39.56,17.5,115.13,14.93,199.43C-1.98,18,194.01,10.86,194.01,10.86L218.76,62.06z"/>
		</mask>
		<g class="st9">
			
				<linearGradient id="SVGID_4_" gradientUnits="userSpaceOnUse" x1="108.7229" y1="157.3699" x2="90.443" y2="244.7412" gradientTransform="matrix(1 0 0 -1 2.131348e-04 264.1101)">
				<stop  offset="1.000000e-04" style="stop-color:#5D7B9D"/>
				<stop  offset="1" style="stop-color:#2563AD"/>
			</linearGradient>
			<path class="st10" d="M-1.98,10.86h220.75v188.57H-1.98V10.86z"/>
			<path class="st11" d="M187.97,142.43c90.56,90.01,205.01,16.01,205.01,16.01c-12.01,30.33-78.59,64.65-158.5,60.17
				C234.48,218.62,178.63,189.87,187.97,142.43z"/>
			
				<linearGradient id="SVGID_5_" gradientUnits="userSpaceOnUse" x1="173.0583" y1="285.2023" x2="-102.4417" y2="-170.7979" gradientTransform="matrix(1 0 0 -1 2.131348e-04 264.1101)">
				<stop  offset="0" style="stop-color:#4273A9"/>
				<stop  offset="0.4688" style="stop-color:#B5D5F2"/>
				<stop  offset="0.724" style="stop-color:#C7DFF5"/>
				<stop  offset="1" style="stop-color:#FFFFFF"/>
			</linearGradient>
			<path class="st12" d="M206.39,36.46c0,0-129.62-15.52-175.5,101.51c-9.85,18.92-15.3,39.91-15.96,61.47
				C-1.99,18,194.01,10.86,194.01,10.86L206.39,36.46z"/>
			<path class="st13" d="M392.98,158.45c0,0-72.03-30.63-180.36-58.8c16.93-8.7,36.4-16.57,58.81-23.18
				c31.3,11.37,64.98,28.39,100.75,52.09C373.49,129.42,398.99,143.28,392.98,158.45z"/>
		</g>
	</g>
	
		<linearGradient id="SVGID_6_" gradientUnits="userSpaceOnUse" x1="212.3057" y1="-17.9948" x2="36.8057" y2="297.0052" gradientTransform="matrix(1 0 0 -1 2.131348e-04 264.1101)">
		<stop  offset="0" style="stop-color:#FFFFFF"/>
		<stop  offset="0.2638" style="stop-color:#ACCBEC"/>
		<stop  offset="0.5204" style="stop-color:#7AABDD"/>
		<stop  offset="0.6945" style="stop-color:#5591CD"/>
	</linearGradient>
	<path class="st14" d="M15.34,196.49c26.8-160.8,181.83-147,256-120c-171.6,58-180.17,166.83-163,214
		C25.94,310.09,12,235.99,15.34,196.49z"/>
</g>
</svg>
